# xmcd
#
# Track frame offsets: 
#        150
#        12365
#        32764
#        46646
#        65689
#        82125
#        100047
#        113017
#        139346
#        153374
#        166750
#        184634
#
# Disc length: 2745 seconds
#
# Revision: 0
# Processed by: cddbd v1.5.2PL0 Copyright (c) Steve Scherf et al.
# Submitted via: ExactAudioCopyFreeDBPlugin 1.0
#
DISCID=910ab70c
DTITLE=Laurie MacAllister - The Things I Choose To Do
DYEAR=2006
DGENRE=Country
TTITLE0=Coal Tattoo
TTITLE1=Nobody's Angel
TTITLE2=Memories of You
TTITLE3=I Can't Sleep
TTITLE4=What'll I Do?
TTITLE5=Me and My Michael
TTITLE6=I'm Only Sleeping
TTITLE7=Famous Blue Raincoat
TTITLE8=This Falling in Love
TTITLE9=Where Goes My Love?
TTITLE10=Jolene
TTITLE11=Baton Rouge
EXTD=
EXTT0=
EXTT1=
EXTT2=
EXTT3=
EXTT4=
EXTT5=
EXTT6=
EXTT7=
EXTT8=
EXTT9=
EXTT10=
EXTT11=
PLAYORDER=
